<?xml version="1.0" ?><svg data-name="Your Icons" id="Your_Icons" viewBox="0 0 48 48" xmlns="http://www.w3.org/2000/svg"><defs><style>.cls-1{fill:#939598;}.cls-2{fill:#00a651;}.cls-3{fill:#fff;}</style></defs><title/><path class="cls-1" d="M41.62,22.21,39.28,18l0,0,1.57-3.2a3,3,0,0,0-1.38-4L29.7,6.27A2.86,2.86,0,0,0,26,7.4L23.83,11,21.64,7.4A2.91,2.91,0,0,0,19.17,6a2.87,2.87,0,0,0-1.2.27L8.24,10.82a3,3,0,0,0-1.39,4L8.43,18l0,0L6.51,21.39a4,4,0,0,0,1.55,5.45l.33.18v4.83a6,6,0,0,1,3-3.23A5.91,5.91,0,0,1,14,28a6,6,0,0,1,4.81,2.43,6.12,6.12,0,0,1,.43.69c0,.07.09.14.13.22a6.69,6.69,0,0,1,.39,1A5.7,5.7,0,0,1,20,34a6,6,0,0,1-3.49,5.45l4.23,1.89a7.59,7.59,0,0,0,6.19,0l10-4.49a4,4,0,0,0,2.32-3.62V26.94l1.12-.61A3,3,0,0,0,41.62,22.21Zm-17.8,3.71h0Zm1-.52V13.48l12.06,5.76Zm1-13.81,1.91-3.15A.88.88,0,0,1,28.49,8a.86.86,0,0,1,.36.08l9.74,4.55a.94.94,0,0,1,.48.54A1.06,1.06,0,0,1,39,14l-1.63,3.3L25.83,11.74ZM8.6,13.17a.94.94,0,0,1,.48-.54l9.74-4.55A.85.85,0,0,1,19.17,8a.88.88,0,0,1,.76.44l1.9,3.15v.15L10.28,17.26,8.65,14A1,1,0,0,1,8.6,13.17Zm14.23.31V25.41L10.77,19.24ZM14,26a7.94,7.94,0,0,0-2.53.41L9,25.08a1.9,1.9,0,0,1-.94-1.17,2,2,0,0,1,.18-1.55l.94-1.68,12.63,6.46v.29l-.91,1.88a2.39,2.39,0,0,1-.21.34A8,8,0,0,0,14,26Zm6.28,13A8,8,0,0,0,22,34a7.62,7.62,0,0,0-.32-2.21,1.21,1.21,0,0,0-.05-.18,4.12,4.12,0,0,0,1.15-1.42l0-.12V39.9a5.32,5.32,0,0,1-1.27-.39Zm17-5.72A1.94,1.94,0,0,1,36.14,35l-10,4.49a5.26,5.26,0,0,1-1.28.39V30.07a4,4,0,0,0,3.31,2.31h.29a3.71,3.71,0,0,0,1.85-.49l7-3.83ZM40,24a1,1,0,0,1-.47.57h-.05L29.27,30.14a1.75,1.75,0,0,1-.86.22,1.84,1.84,0,0,1-1.66-1.06l-.92-1.87v-.29l12.64-6.46,1.4,2.51A1.06,1.06,0,0,1,40,24Z"/><path class="cls-2" d="M14,26a8,8,0,1,0,8,8A8,8,0,0,0,14,26Z"/><path class="cls-3" d="M16.5,33H15V31.5a1,1,0,0,0-2,0V33H11.5a1,1,0,0,0,0,2H13v1.5a1,1,0,0,0,2,0V35h1.5a1,1,0,0,0,0-2Z"/></svg>