<?xml version="1.0" ?><svg viewBox="0 0 96 96" xmlns="http://www.w3.org/2000/svg"><title/><g id="AddToCart"><path d="M35,64a6,6,0,1,0,6,6A6,6,0,0,0,35,64Zm0,11a5,5,0,1,1,5-5A5,5,0,0,1,35,75Z"/><path d="M63,64a6,6,0,1,0,6,6A6,6,0,0,0,63,64Zm0,11a5,5,0,1,1,5-5A5,5,0,0,1,63,75Z"/><path d="M67.79,55a.49.49,0,0,0,.46-.31l11.6-29a.5.5,0,0,0-.46-.69H23.92L23,21.39h0v0a.55.55,0,0,0-.08-.15l0-.05-.08-.07-.07,0-.09,0H16.5a.5.5,0,0,0-.5.5v4a.5.5,0,0,0,.5.5h6.64l8,31.14A3,3,0,0,0,32,63H68.5a.5.5,0,0,0,.5-.5v-5a.5.5,0,0,0-.5-.5H32.15l-.52-2ZM78.65,26,67.45,54H31.62L24.39,26ZM17,25V22h5.11l.75,3ZM68,62H32a2,2,0,0,1,0-4H68Z"/><path d="M50,50A10,10,0,1,0,40,40,10,10,0,0,0,50,50Zm0-19a9,9,0,1,1-9,9A9,9,0,0,1,50,31Z"/><path d="M45,40.5h4.5V45a.5.5,0,0,0,1,0V40.5H55a.5.5,0,0,0,0-1H50.5V35a.5.5,0,0,0-1,0v4.5H45a.5.5,0,0,0,0,1Z"/></g></svg>