<svg xmlns="http://www.w3.org/2000/svg" xmlns:xlink="http://www.w3.org/1999/xlink" viewBox="0 0 93.22 103.93"><defs><clipPath id="clip-path"><path d="M74.34,30.55a1.21,1.21,0,0,1,1.17.91L88.87,85.77a1.15,1.15,0,0,1-.23,1,1.14,1.14,0,0,1-.94.46h-79a1.2,1.2,0,0,1-1.17-1.48L20.93,31.46a1.2,1.2,0,0,1,1.17-.91H74.34m0-3.43H22.1a4.63,4.63,0,0,0-4.5,3.52L4.24,85a4.63,4.63,0,0,0,4.5,5.73h79A4.63,4.63,0,0,0,92.2,85L78.84,30.64a4.63,4.63,0,0,0-4.5-3.52Z" fill="#4d4d4f"/></clipPath><linearGradient id="linear-gradient" y1="58.95" x2="93.22" y2="58.95" gradientUnits="userSpaceOnUse"><stop offset="0" stop-color="#7ecbb1"/><stop offset="1" stop-color="#475aa8"/></linearGradient><linearGradient id="linear-gradient-2" x1="47.28" y1="76.41" x2="51.24" y2="76.41" xlink:href="#linear-gradient"/></defs><g id="Layer_2" data-name="Layer 2"><g id="Layer_1-2" data-name="Layer 1"><path d="M74.34,30.55a1.21,1.21,0,0,1,1.17.91L88.87,85.77a1.15,1.15,0,0,1-.23,1,1.14,1.14,0,0,1-.94.46h-79a1.2,1.2,0,0,1-1.17-1.48L20.93,31.46a1.2,1.2,0,0,1,1.17-.91H74.34m0-3.43H22.1a4.63,4.63,0,0,0-4.5,3.52L4.24,85a4.63,4.63,0,0,0,4.5,5.73h79A4.63,4.63,0,0,0,92.2,85L78.84,30.64a4.63,4.63,0,0,0-4.5-3.52Z" fill="#4d4d4f"/><g clip-path="url(#clip-path)"><polygon points="3.53 86.86 7.35 90.68 3.53 90.68 3.53 86.86" fill="#4d4d4f"/><polygon points="3.53 86.18 8.03 90.68 7.35 90.68 3.53 86.86 3.53 86.18" fill="#4d4d4f"/><polygon points="3.53 85.51 8.7 90.68 8.03 90.68 3.53 86.18 3.53 85.51" fill="#4d4d4f"/><polygon points="3.53 84.83 9.38 90.68 8.7 90.68 3.53 85.51 3.53 84.83" fill="#4d4d4f"/><polygon points="3.53 84.16 10.05 90.68 9.38 90.68 3.53 84.83 3.53 84.16" fill="#4d4d4f"/><polygon points="3.53 83.48 10.73 90.68 10.05 90.68 3.53 84.16 3.53 83.48" fill="#4d4d4f"/><polygon points="3.53 82.8 11.41 90.68 10.73 90.68 3.53 83.48 3.53 82.8" fill="#4d4d4f"/><polygon points="3.53 82.13 12.08 90.68 11.41 90.68 3.53 82.8 3.53 82.13" fill="#4d4d4f"/><polygon points="3.53 81.45 12.76 90.68 12.08 90.68 3.53 82.13 3.53 81.45" fill="#4d4d4f"/><polygon points="3.53 80.77 13.44 90.68 12.76 90.68 3.53 81.45 3.53 80.77" fill="#4d4d4f"/><polygon points="3.53 80.1 14.11 90.68 13.44 90.68 3.53 80.77 3.53 80.1" fill="#4d4d4f"/><polygon points="3.53 79.42 14.79 90.68 14.11 90.68 3.53 80.1 3.53 79.42" fill="#4d4d4f"/><polygon points="3.53 78.74 15.46 90.68 14.79 90.68 3.53 79.42 3.53 78.74" fill="#4d4d4f"/><polygon points="3.53 78.07 16.14 90.68 15.46 90.68 3.53 78.74 3.53 78.07" fill="#4d4d4f"/><polygon points="3.53 77.39 16.82 90.68 16.14 90.68 3.53 78.07 3.53 77.39" fill="#4d4d4f"/><polygon points="3.53 76.72 17.49 90.68 16.82 90.68 3.53 77.39 3.53 76.72" fill="#4d4d4f"/><polygon points="3.53 76.04 18.17 90.68 17.49 90.68 3.53 76.72 3.53 76.04" fill="#4d4d4f"/><polygon points="3.53 75.36 18.85 90.68 18.17 90.68 3.53 76.04 3.53 75.36" fill="#4d4d4f"/><polygon points="3.53 74.69 19.52 90.68 18.85 90.68 3.53 75.36 3.53 74.69" fill="#4d4d4f"/><polygon points="3.53 74.01 20.2 90.68 19.52 90.68 3.53 74.69 3.53 74.01" fill="#4d4d4f"/><polygon points="3.53 73.33 20.88 90.68 20.2 90.68 3.53 74.01 3.53 73.33" fill="#4d4d4f"/><polygon points="3.53 72.66 21.55 90.68 20.88 90.68 3.53 73.33 3.53 72.66" fill="#4d4d4f"/><polygon points="3.53 71.98 22.23 90.68 21.55 90.68 3.53 72.66 3.53 71.98" fill="#4d4d4f"/><polygon points="3.53 71.31 22.9 90.68 22.23 90.68 3.53 71.98 3.53 71.31" fill="#4d4d4f"/><polygon points="3.53 70.63 23.58 90.68 22.9 90.68 3.53 71.31 3.53 70.63" fill="#4d4d4f"/><polygon points="3.53 69.95 24.26 90.68 23.58 90.68 3.53 70.63 3.53 69.95" fill="#4d4d4f"/><polygon points="3.53 69.28 24.93 90.68 24.26 90.68 3.53 69.95 3.53 69.28" fill="#4d4d4f"/><polygon points="3.53 68.6 25.61 90.68 24.93 90.68 3.53 69.28 3.53 68.6" fill="#4d4d4f"/><polygon points="3.53 67.92 26.29 90.68 25.61 90.68 3.53 68.6 3.53 67.92" fill="#4d4d4f"/><polygon points="3.53 67.25 26.96 90.68 26.29 90.68 3.53 67.92 3.53 67.25" fill="#4d4d4f"/><polygon points="3.53 66.57 27.64 90.68 26.96 90.68 3.53 67.25 3.53 66.57" fill="#4d4d4f"/><polygon points="3.53 65.89 28.31 90.68 27.64 90.68 3.53 66.57 3.53 65.89" fill="#4d4d4f"/><polygon points="3.53 65.22 28.99 90.68 28.31 90.68 3.53 65.89 3.53 65.22" fill="#4d4d4f"/><polygon points="3.53 64.54 29.67 90.68 28.99 90.68 3.53 65.22 3.53 64.54" fill="#4d4d4f"/><polygon points="3.53 63.87 30.34 90.68 29.67 90.68 3.53 64.54 3.53 63.87" fill="#4d4d4f"/><polygon points="3.53 63.19 31.02 90.68 30.34 90.68 3.53 63.87 3.53 63.19" fill="#4d4d4f"/><polygon points="3.53 62.51 31.7 90.68 31.02 90.68 3.53 63.19 3.53 62.51" fill="#4d4d4f"/><polygon points="3.53 61.84 32.37 90.68 31.7 90.68 3.53 62.51 3.53 61.84" fill="#4d4d4f"/><polygon points="3.53 61.16 33.05 90.68 32.37 90.68 3.53 61.84 3.53 61.16" fill="#4d4d4f"/><polygon points="3.53 60.48 33.73 90.68 33.05 90.68 3.53 61.16 3.53 60.48" fill="#4d4d4f"/><polygon points="3.53 59.81 34.4 90.68 33.73 90.68 3.53 60.48 3.53 59.81" fill="#4d4d4f"/><polygon points="3.53 59.13 35.08 90.68 34.4 90.68 3.53 59.81 3.53 59.13" fill="#4d4d4f"/><polygon points="3.53 58.45 35.75 90.68 35.08 90.68 3.53 59.13 3.53 58.45" fill="#4d4d4f"/><polygon points="3.53 57.78 36.43 90.68 35.75 90.68 3.53 58.45 3.53 57.78" fill="#4d4d4f"/><polygon points="3.53 57.1 37.11 90.68 36.43 90.68 3.53 57.78 3.53 57.1" fill="#4d4d4f"/><polygon points="3.53 56.43 37.78 90.68 37.11 90.68 3.53 57.1 3.53 56.43" fill="#4d4d4f"/><polygon points="3.53 55.75 38.46 90.68 37.78 90.68 3.53 56.43 3.53 55.75" fill="#4d4d4f"/><polygon points="3.53 55.07 39.13 90.68 38.46 90.68 3.53 55.75 3.53 55.07" fill="#4d4d4f"/><polygon points="3.53 54.4 39.81 90.68 39.13 90.68 3.53 55.07 3.53 54.4" fill="#4d4d4f"/><polygon points="3.53 53.72 40.49 90.68 39.81 90.68 3.53 54.4 3.53 53.72" fill="#4d4d4f"/><polygon points="3.53 53.04 41.16 90.68 40.49 90.68 3.53 53.72 3.53 53.04" fill="#4d4d4f"/><polygon points="3.53 52.37 41.84 90.68 41.16 90.68 3.53 53.04 3.53 52.37" fill="#4d4d4f"/><polygon points="3.53 51.69 42.52 90.68 41.84 90.68 3.53 52.37 3.53 51.69" fill="#4d4d4f"/><polygon points="3.53 51.02 43.19 90.68 42.52 90.68 3.53 51.69 3.53 51.02" fill="#4d4d4f"/><polygon points="3.53 50.34 43.87 90.68 43.19 90.68 3.53 51.02 3.53 50.34" fill="#4d4d4f"/><polygon points="3.53 49.66 44.55 90.68 43.87 90.68 3.53 50.34 3.53 49.66" fill="#4d4d4f"/><polygon points="3.53 48.99 45.22 90.68 44.55 90.68 3.53 49.66 3.53 48.99" fill="#4d4d4f"/><polygon points="3.53 48.31 45.9 90.68 45.22 90.68 3.53 48.99 3.53 48.31" fill="#4d4d4f"/><polygon points="3.53 47.63 46.58 90.68 45.9 90.68 3.53 48.31 3.53 47.63" fill="#4d4d4f"/><polygon points="3.53 46.96 47.25 90.68 46.58 90.68 3.53 47.63 3.53 46.96" fill="#4d4d4f"/><polygon points="3.53 46.28 47.93 90.68 47.25 90.68 3.53 46.96 3.53 46.28" fill="#4d4d4f"/><polygon points="3.53 45.6 48.6 90.68 47.93 90.68 3.53 46.28 3.53 45.6" fill="#4d4d4f"/><polygon points="3.53 44.93 49.28 90.68 48.6 90.68 3.53 45.6 3.53 44.93" fill="#4d4d4f"/><polygon points="3.53 44.25 49.96 90.68 49.28 90.68 3.53 44.93 3.53 44.25" fill="#4d4d4f"/><polygon points="3.53 43.58 50.63 90.68 49.96 90.68 3.53 44.25 3.53 43.58" fill="#4d4d4f"/><polygon points="3.53 42.9 51.31 90.68 50.63 90.68 3.53 43.58 3.53 42.9" fill="#4d4d4f"/><polygon points="3.53 42.22 51.98 90.68 51.31 90.68 3.53 42.9 3.53 42.22" fill="#4d4d4f"/><polygon points="3.53 41.55 52.66 90.68 51.98 90.68 3.53 42.22 3.53 41.55" fill="#4d4d4f"/><polygon points="3.53 41.22 3.7 41.04 53.34 90.68 52.66 90.68 3.53 41.55 3.53 41.22" fill="#4d4d4f"/><polygon points="3.7 41.04 4.04 40.71 54.01 90.68 53.34 90.68 3.7 41.04" fill="#4d4d4f"/><polygon points="4.04 40.71 4.38 40.37 54.69 90.68 54.01 90.68 4.04 40.71" fill="#4d4d4f"/><polygon points="4.38 40.37 4.71 40.03 55.37 90.68 54.69 90.68 4.38 40.37" fill="#4d4d4f"/><polygon points="4.71 40.03 5.05 39.69 56.04 90.68 55.37 90.68 4.71 40.03" fill="#4d4d4f"/><polygon points="5.05 39.69 5.39 39.35 56.72 90.68 56.04 90.68 5.05 39.69" fill="#4d4d4f"/><polygon points="5.39 39.35 5.73 39.02 57.4 90.68 56.72 90.68 5.39 39.35" fill="#4d4d4f"/><polygon points="5.73 39.02 6.07 38.68 58.07 90.68 57.4 90.68 5.73 39.02" fill="#4d4d4f"/><polygon points="6.07 38.68 6.4 38.34 58.75 90.68 58.07 90.68 6.07 38.68" fill="#4d4d4f"/><polygon points="6.4 38.34 6.74 38 59.42 90.68 58.75 90.68 6.4 38.34" fill="#4d4d4f"/><polygon points="6.74 38 7.08 37.66 60.1 90.68 59.42 90.68 6.74 38" fill="#4d4d4f"/><polygon points="7.08 37.66 7.42 37.32 60.78 90.68 60.1 90.68 7.08 37.66" fill="#4d4d4f"/><polygon points="7.42 37.32 7.76 36.99 61.45 90.68 60.78 90.68 7.42 37.32" fill="#4d4d4f"/><polygon points="7.76 36.99 8.1 36.65 62.13 90.68 61.45 90.68 7.76 36.99" fill="#4d4d4f"/><polygon points="8.1 36.65 8.43 36.31 62.81 90.68 62.13 90.68 8.1 36.65" fill="#4d4d4f"/><polygon points="8.43 36.31 8.77 35.97 63.48 90.68 62.81 90.68 8.43 36.31" fill="#4d4d4f"/><polygon points="8.77 35.97 9.11 35.63 64.16 90.68 63.48 90.68 8.77 35.97" fill="#4d4d4f"/><polygon points="9.11 35.63 9.45 35.3 64.83 90.68 64.16 90.68 9.11 35.63" fill="#4d4d4f"/><polygon points="9.45 35.3 9.79 34.96 65.51 90.68 64.83 90.68 9.45 35.3" fill="#4d4d4f"/><polygon points="9.79 34.96 10.12 34.62 66.19 90.68 65.51 90.68 9.79 34.96" fill="#4d4d4f"/><polygon points="10.12 34.62 10.46 34.28 66.86 90.68 66.19 90.68 10.12 34.62" fill="#4d4d4f"/><polygon points="10.46 34.28 10.8 33.94 67.54 90.68 66.86 90.68 10.46 34.28" fill="#4d4d4f"/><polygon points="10.8 33.94 11.14 33.6 68.22 90.68 67.54 90.68 10.8 33.94" fill="#4d4d4f"/><polygon points="11.14 33.6 11.48 33.27 68.89 90.68 68.22 90.68 11.14 33.6" fill="#4d4d4f"/><polygon points="11.48 33.27 11.81 32.93 69.57 90.68 68.89 90.68 11.48 33.27" fill="#4d4d4f"/><polygon points="11.81 32.93 12.15 32.59 70.25 90.68 69.57 90.68 11.81 32.93" fill="#4d4d4f"/><polygon points="12.15 32.59 12.49 32.25 70.92 90.68 70.25 90.68 12.15 32.59" fill="#4d4d4f"/><polygon points="12.49 32.25 12.83 31.91 71.6 90.68 70.92 90.68 12.49 32.25" fill="#4d4d4f"/><polygon points="12.83 31.91 13.17 31.58 72.28 90.68 71.6 90.68 12.83 31.91" fill="#4d4d4f"/><polygon points="13.17 31.58 13.51 31.24 72.95 90.68 72.28 90.68 13.17 31.58" fill="#4d4d4f"/><polygon points="13.51 31.24 13.84 30.9 73.63 90.68 72.95 90.68 13.51 31.24" fill="#4d4d4f"/><polygon points="13.84 30.9 14.18 30.56 74.3 90.68 73.63 90.68 13.84 30.9" fill="#4d4d4f"/><polygon points="14.18 30.56 14.52 30.22 74.98 90.68 74.3 90.68 14.18 30.56" fill="#4d4d4f"/><polygon points="14.52 30.22 14.86 29.89 75.66 90.68 74.98 90.68 14.52 30.22" fill="#4d4d4f"/><polygon points="14.86 29.89 15.2 29.55 76.33 90.68 75.66 90.68 14.86 29.89" fill="#4d4d4f"/><polygon points="15.2 29.55 15.53 29.21 77.01 90.68 76.33 90.68 15.2 29.55" fill="#4d4d4f"/><polygon points="15.53 29.21 15.87 28.87 77.69 90.68 77.01 90.68 15.53 29.21" fill="#4d4d4f"/><polygon points="15.87 28.87 16.21 28.53 78.36 90.68 77.69 90.68 15.87 28.87" fill="#4d4d4f"/><polygon points="16.21 28.53 16.55 28.19 79.04 90.68 78.36 90.68 16.21 28.53" fill="#4d4d4f"/><polygon points="16.55 28.19 16.89 27.86 79.71 90.68 79.04 90.68 16.55 28.19" fill="#4d4d4f"/><polygon points="16.89 27.86 17.23 27.52 80.39 90.68 79.71 90.68 16.89 27.86" fill="#4d4d4f"/><polygon points="17.23 27.52 17.56 27.18 81.07 90.68 80.39 90.68 17.23 27.52" fill="#4d4d4f"/><polygon points="17.56 27.18 17.63 27.12 18.18 27.12 81.74 90.68 81.07 90.68 17.56 27.18" fill="#4d4d4f"/><polygon points="18.85 27.12 82.42 90.68 81.74 90.68 18.18 27.12 18.85 27.12" fill="#4d4d4f"/><polygon points="19.53 27.12 83.09 90.68 82.42 90.68 18.85 27.12 19.53 27.12" fill="#4d4d4f"/><polygon points="20.21 27.12 83.77 90.68 83.09 90.68 19.53 27.12 20.21 27.12" fill="#4d4d4f"/><polygon points="20.88 27.12 84.45 90.68 83.77 90.68 20.21 27.12 20.88 27.12" fill="#4d4d4f"/><polygon points="21.56 27.12 85.12 90.68 84.45 90.68 20.88 27.12 21.56 27.12" fill="#4d4d4f"/><polygon points="22.23 27.12 85.8 90.68 85.12 90.68 21.56 27.12 22.23 27.12" fill="#4d4d4f"/><polygon points="22.91 27.12 86.48 90.68 85.8 90.68 22.23 27.12 22.91 27.12" fill="#4d4d4f"/><polygon points="23.59 27.12 87.15 90.68 86.48 90.68 22.91 27.12 23.59 27.12" fill="#4d4d4f"/><polygon points="24.26 27.12 87.83 90.68 87.15 90.68 23.59 27.12 24.26 27.12" fill="#4d4d4f"/><polygon points="24.94 27.12 88.51 90.68 87.83 90.68 24.26 27.12 24.94 27.12" fill="#4d4d4f"/><polygon points="25.62 27.12 89.18 90.68 88.51 90.68 24.94 27.12 25.62 27.12" fill="#4d4d4f"/><polygon points="26.29 27.12 89.86 90.68 89.18 90.68 25.62 27.12 26.29 27.12" fill="#4d4d4f"/><polygon points="26.97 27.12 90.53 90.68 89.86 90.68 26.29 27.12 26.97 27.12" fill="#4d4d4f"/><polygon points="27.64 27.12 91.21 90.68 90.53 90.68 26.97 27.12 27.64 27.12" fill="#4d4d4f"/><polygon points="28.32 27.12 91.89 90.68 91.21 90.68 27.64 27.12 28.32 27.12" fill="#4d4d4f"/><polygon points="29 27.12 92.56 90.68 91.89 90.68 28.32 27.12 29 27.12" fill="#4d4d4f"/><polygon points="29.67 27.12 92.91 90.36 92.91 90.42 92.65 90.68 92.56 90.68 29 27.12 29.67 27.12" fill="#4d4d4f"/><polygon points="30.35 27.12 92.91 89.68 92.91 90.36 29.67 27.12 30.35 27.12" fill="#4d4d4f"/><polygon points="31.03 27.12 92.91 89 92.91 89.68 30.35 27.12 31.03 27.12" fill="#4d4d4f"/><polygon points="31.7 27.12 92.91 88.33 92.91 89 31.03 27.12 31.7 27.12" fill="#4d4d4f"/><polygon points="32.38 27.12 92.91 87.65 92.91 88.33 31.7 27.12 32.38 27.12" fill="#4d4d4f"/><polygon points="33.06 27.12 92.91 86.97 92.91 87.65 32.38 27.12 33.06 27.12" fill="#4d4d4f"/><polygon points="33.73 27.12 92.91 86.3 92.91 86.97 33.06 27.12 33.73 27.12" fill="#4d4d4f"/><polygon points="34.41 27.12 92.91 85.62 92.91 86.3 33.73 27.12 34.41 27.12" fill="#4d4d4f"/><polygon points="35.09 27.12 92.91 84.94 92.91 85.62 34.41 27.12 35.09 27.12" fill="#4d4d4f"/><polygon points="35.76 27.12 92.91 84.27 92.91 84.94 35.09 27.12 35.76 27.12" fill="#4d4d4f"/><polygon points="36.44 27.12 92.91 83.59 92.91 84.27 35.76 27.12 36.44 27.12" fill="#4d4d4f"/><polygon points="37.11 27.12 92.91 82.92 92.91 83.59 36.44 27.12 37.11 27.12" fill="#4d4d4f"/><polygon points="37.79 27.12 92.91 82.24 92.91 82.92 37.11 27.12 37.79 27.12" fill="#4d4d4f"/><polygon points="38.47 27.12 92.91 81.56 92.91 82.24 37.79 27.12 38.47 27.12" fill="#4d4d4f"/><polygon points="39.14 27.12 92.91 80.89 92.91 81.56 38.47 27.12 39.14 27.12" fill="#4d4d4f"/><polygon points="39.82 27.12 92.91 80.21 92.91 80.89 39.14 27.12 39.82 27.12" fill="#4d4d4f"/><polygon points="40.49 27.12 92.91 79.53 92.91 80.21 39.82 27.12 40.49 27.12" fill="#4d4d4f"/><polygon points="41.17 27.12 92.91 78.86 92.91 79.53 40.49 27.12 41.17 27.12" fill="#4d4d4f"/><polygon points="41.85 27.12 92.91 78.18 92.91 78.86 41.17 27.12 41.85 27.12" fill="#4d4d4f"/><polygon points="42.52 27.12 92.91 77.51 92.91 78.18 41.85 27.12 42.52 27.12" fill="#4d4d4f"/><polygon points="43.2 27.12 92.91 76.83 92.91 77.51 42.52 27.12 43.2 27.12" fill="#4d4d4f"/><polygon points="43.88 27.12 92.91 76.15 92.91 76.83 43.2 27.12 43.88 27.12" fill="#4d4d4f"/><polygon points="44.55 27.12 92.91 75.48 92.91 76.15 43.88 27.12 44.55 27.12" fill="#4d4d4f"/><polygon points="45.23 27.12 92.91 74.8 92.91 75.48 44.55 27.12 45.23 27.12" fill="#4d4d4f"/><polygon points="45.91 27.12 92.91 74.13 92.91 74.8 45.23 27.12 45.91 27.12" fill="#4d4d4f"/><polygon points="46.58 27.12 92.91 73.45 92.91 74.13 45.91 27.12 46.58 27.12" fill="#4d4d4f"/><polygon points="47.26 27.12 92.91 72.77 92.91 73.45 46.58 27.12 47.26 27.12" fill="#4d4d4f"/><polygon points="47.93 27.12 92.91 72.1 92.91 72.77 47.26 27.12 47.93 27.12" fill="#4d4d4f"/><polygon points="48.61 27.12 92.91 71.42 92.91 72.1 47.93 27.12 48.61 27.12" fill="#4d4d4f"/><polygon points="49.29 27.12 92.91 70.74 92.91 71.42 48.61 27.12 49.29 27.12" fill="#4d4d4f"/><polygon points="49.96 27.12 92.91 70.07 92.91 70.74 49.29 27.12 49.96 27.12" fill="#4d4d4f"/><polygon points="50.64 27.12 92.91 69.39 92.91 70.07 49.96 27.12 50.64 27.12" fill="#4d4d4f"/><polygon points="51.32 27.12 92.91 68.71 92.91 69.39 50.64 27.12 51.32 27.12" fill="#4d4d4f"/><polygon points="51.99 27.12 92.91 68.04 92.91 68.71 51.32 27.12 51.99 27.12" fill="#4d4d4f"/><polygon points="52.67 27.12 92.91 67.36 92.91 68.04 51.99 27.12 52.67 27.12" fill="#4d4d4f"/><polygon points="53.34 27.12 92.91 66.69 92.91 67.36 52.67 27.12 53.34 27.12" fill="#4d4d4f"/><polygon points="54.02 27.12 92.91 66.01 92.91 66.69 53.34 27.12 54.02 27.12" fill="#4d4d4f"/><polygon points="54.7 27.12 92.91 65.33 92.91 66.01 54.02 27.12 54.7 27.12" fill="#4d4d4f"/><polygon points="55.37 27.12 92.91 64.66 92.91 65.33 54.7 27.12 55.37 27.12" fill="#4d4d4f"/><polygon points="56.05 27.12 92.91 63.98 92.91 64.66 55.37 27.12 56.05 27.12" fill="#4d4d4f"/><polygon points="56.73 27.12 92.91 63.3 92.91 63.98 56.05 27.12 56.73 27.12" fill="#4d4d4f"/><polygon points="57.4 27.12 92.91 62.63 92.91 63.3 56.73 27.12 57.4 27.12" fill="#4d4d4f"/><polygon points="58.08 27.12 92.91 61.95 92.91 62.63 57.4 27.12 58.08 27.12" fill="#4d4d4f"/><polygon points="58.76 27.12 92.91 61.27 92.91 61.95 58.08 27.12 58.76 27.12" fill="#4d4d4f"/><polygon points="59.43 27.12 92.91 60.6 92.91 61.27 58.76 27.12 59.43 27.12" fill="#4d4d4f"/><polygon points="60.11 27.12 92.91 59.92 92.91 60.6 59.43 27.12 60.11 27.12" fill="#4d4d4f"/><polygon points="60.78 27.12 92.91 59.25 92.91 59.92 60.11 27.12 60.78 27.12" fill="#4d4d4f"/><polygon points="61.46 27.12 92.91 58.57 92.91 59.25 60.78 27.12 61.46 27.12" fill="#4d4d4f"/><polygon points="62.14 27.12 92.91 57.89 92.91 58.57 61.46 27.12 62.14 27.12" fill="#4d4d4f"/><polygon points="62.81 27.12 92.91 57.22 92.91 57.89 62.14 27.12 62.81 27.12" fill="#4d4d4f"/><polygon points="63.49 27.12 92.91 56.54 92.91 57.22 62.81 27.12 63.49 27.12" fill="#4d4d4f"/><polygon points="64.17 27.12 92.91 55.86 92.91 56.54 63.49 27.12 64.17 27.12" fill="#4d4d4f"/><polygon points="64.84 27.12 92.91 55.19 92.91 55.86 64.17 27.12 64.84 27.12" fill="#4d4d4f"/><polygon points="65.52 27.12 92.91 54.51 92.91 55.19 64.84 27.12 65.52 27.12" fill="#4d4d4f"/><polygon points="66.19 27.12 92.91 53.84 92.91 54.51 65.52 27.12 66.19 27.12" fill="#4d4d4f"/><polygon points="66.87 27.12 92.91 53.16 92.91 53.84 66.19 27.12 66.87 27.12" fill="#4d4d4f"/><polygon points="67.55 27.12 92.91 52.48 92.91 53.16 66.87 27.12 67.55 27.12" fill="#4d4d4f"/><polygon points="68.22 27.12 92.91 51.81 92.91 52.48 67.55 27.12 68.22 27.12" fill="#4d4d4f"/><polygon points="68.9 27.12 92.91 51.13 92.91 51.81 68.22 27.12 68.9 27.12" fill="#4d4d4f"/><polygon points="69.58 27.12 92.91 50.45 92.91 51.13 68.9 27.12 69.58 27.12" fill="#4d4d4f"/><polygon points="70.25 27.12 92.91 49.78 92.91 50.45 69.58 27.12 70.25 27.12" fill="#4d4d4f"/><polygon points="70.93 27.12 92.91 49.1 92.91 49.78 70.25 27.12 70.93 27.12" fill="#4d4d4f"/><polygon points="71.61 27.12 92.91 48.42 92.91 49.1 70.93 27.12 71.61 27.12" fill="#4d4d4f"/><polygon points="72.28 27.12 92.91 47.75 92.91 48.42 71.61 27.12 72.28 27.12" fill="#4d4d4f"/><polygon points="72.96 27.12 92.91 47.07 92.91 47.75 72.28 27.12 72.96 27.12" fill="#4d4d4f"/><polygon points="73.63 27.12 92.91 46.4 92.91 47.07 72.96 27.12 73.63 27.12" fill="#4d4d4f"/><polygon points="74.31 27.12 92.91 45.72 92.91 46.4 73.63 27.12 74.31 27.12" fill="#4d4d4f"/><polygon points="74.99 27.12 92.91 45.04 92.91 45.72 74.31 27.12 74.99 27.12" fill="#4d4d4f"/><polygon points="92.91 45.04 74.99 27.12 92.91 27.12 92.91 45.04" fill="#4d4d4f"/><polygon points="7.45 86.73 7.98 87.25 7.45 87.25 7.45 86.73" fill="#4d4d4f"/><polygon points="7.45 86.05 8.65 87.25 7.98 87.25 7.45 86.73 7.45 86.05" fill="#4d4d4f"/><polygon points="7.45 85.38 9.33 87.25 8.65 87.25 7.45 86.05 7.45 85.38" fill="#4d4d4f"/><polygon points="7.45 84.7 10.01 87.25 9.33 87.25 7.45 85.38 7.45 84.7" fill="#4d4d4f"/><polygon points="7.45 84.02 10.68 87.25 10.01 87.25 7.45 84.7 7.45 84.02" fill="#4d4d4f"/><polygon points="7.45 83.35 11.36 87.25 10.68 87.25 7.45 84.02 7.45 83.35" fill="#4d4d4f"/><polygon points="7.45 82.67 12.04 87.25 11.36 87.25 7.45 83.35 7.45 82.67" fill="#4d4d4f"/><polygon points="7.45 82 12.71 87.25 12.04 87.25 7.45 82.67 7.45 82" fill="#4d4d4f"/><polygon points="7.45 81.32 13.39 87.25 12.71 87.25 7.45 82 7.45 81.32" fill="#4d4d4f"/><polygon points="7.45 80.64 14.06 87.25 13.39 87.25 7.45 81.32 7.45 80.64" fill="#4d4d4f"/><polygon points="7.45 79.97 14.74 87.25 14.06 87.25 7.45 80.64 7.45 79.97" fill="#4d4d4f"/><polygon points="7.45 79.29 15.42 87.25 14.74 87.25 7.45 79.97 7.45 79.29" fill="#4d4d4f"/><polygon points="7.45 78.61 16.09 87.25 15.42 87.25 7.45 79.29 7.45 78.61" fill="#4d4d4f"/><polygon points="7.45 77.94 16.77 87.25 16.09 87.25 7.45 78.61 7.45 77.94" fill="#4d4d4f"/><polygon points="7.45 77.26 17.45 87.25 16.77 87.25 7.45 77.94 7.45 77.26" fill="#4d4d4f"/><polygon points="7.45 76.58 18.12 87.25 17.45 87.25 7.45 77.26 7.45 76.58" fill="#4d4d4f"/><polygon points="7.45 75.91 18.8 87.25 18.12 87.25 7.45 76.58 7.45 75.91" fill="#4d4d4f"/><polygon points="7.45 75.23 19.47 87.25 18.8 87.25 7.45 75.91 7.45 75.23" fill="#4d4d4f"/><polygon points="7.45 74.56 20.15 87.25 19.47 87.25 7.45 75.23 7.45 74.56" fill="#4d4d4f"/><polygon points="7.45 73.88 20.83 87.25 20.15 87.25 7.45 74.56 7.45 73.88" fill="#4d4d4f"/><polygon points="7.45 73.2 21.5 87.25 20.83 87.25 7.45 73.88 7.45 73.2" fill="#4d4d4f"/><polygon points="7.45 72.53 22.18 87.25 21.5 87.25 7.45 73.2 7.45 72.53" fill="#4d4d4f"/><polygon points="7.45 71.85 22.86 87.25 22.18 87.25 7.45 72.53 7.45 71.85" fill="#4d4d4f"/><polygon points="7.45 71.17 23.53 87.25 22.86 87.25 7.45 71.85 7.45 71.17" fill="#4d4d4f"/><polygon points="7.45 70.5 24.21 87.25 23.53 87.25 7.45 71.17 7.45 70.5" fill="#4d4d4f"/><polygon points="7.45 69.82 24.89 87.25 24.21 87.25 7.45 70.5 7.45 69.82" fill="#4d4d4f"/><polygon points="7.45 69.14 25.56 87.25 24.89 87.25 7.45 69.82 7.45 69.14" fill="#4d4d4f"/><polygon points="7.45 68.47 26.24 87.25 25.56 87.25 7.45 69.14 7.45 68.47" fill="#4d4d4f"/><polygon points="7.45 67.79 26.91 87.25 26.24 87.25 7.45 68.47 7.45 67.79" fill="#4d4d4f"/><polygon points="7.45 67.12 27.59 87.25 26.91 87.25 7.45 67.79 7.45 67.12" fill="#4d4d4f"/><polygon points="7.45 66.44 28.27 87.25 27.59 87.25 7.45 67.12 7.45 66.44" fill="#4d4d4f"/><polygon points="7.45 65.76 28.94 87.25 28.27 87.25 7.45 66.44 7.45 65.76" fill="#4d4d4f"/><polygon points="7.45 65.09 29.62 87.25 28.94 87.25 7.45 65.76 7.45 65.09" fill="#4d4d4f"/><polygon points="7.45 64.41 30.3 87.25 29.62 87.25 7.45 65.09 7.45 64.41" fill="#4d4d4f"/><polygon points="7.45 63.73 30.97 87.25 30.3 87.25 7.45 64.41 7.45 63.73" fill="#4d4d4f"/><polygon points="7.45 63.06 31.65 87.25 30.97 87.25 7.45 63.73 7.45 63.06" fill="#4d4d4f"/><polygon points="7.45 62.38 32.32 87.25 31.65 87.25 7.45 63.06 7.45 62.38" fill="#4d4d4f"/><polygon points="7.45 61.7 33 87.25 32.32 87.25 7.45 62.38 7.45 61.7" fill="#4d4d4f"/><polygon points="7.45 61.03 33.68 87.25 33 87.25 7.45 61.7 7.45 61.03" fill="#4d4d4f"/><polygon points="7.45 60.35 34.35 87.25 33.68 87.25 7.45 61.03 7.45 60.35" fill="#4d4d4f"/><polygon points="7.45 59.68 35.03 87.25 34.35 87.25 7.45 60.35 7.45 59.68" fill="#4d4d4f"/><polygon points="7.45 59 35.71 87.25 35.03 87.25 7.45 59.68 7.45 59" fill="#4d4d4f"/><polygon points="7.45 58.32 36.38 87.25 35.71 87.25 7.45 59 7.45 58.32" fill="#4d4d4f"/><polygon points="7.45 57.65 37.06 87.25 36.38 87.25 7.45 58.32 7.45 57.65" fill="#4d4d4f"/><polygon points="7.45 56.97 37.73 87.25 37.06 87.25 7.45 57.65 7.45 56.97" fill="#4d4d4f"/><polygon points="7.45 56.3 38.41 87.25 37.73 87.25 7.45 56.97 7.45 56.3" fill="#4d4d4f"/><polygon points="7.45 55.62 39.09 87.25 38.41 87.25 7.45 56.3 7.45 55.62" fill="#4d4d4f"/><polygon points="7.45 54.94 39.76 87.25 39.09 87.25 7.45 55.62 7.45 54.94" fill="#4d4d4f"/><polygon points="7.45 54.27 40.44 87.25 39.76 87.25 7.45 54.94 7.45 54.27" fill="#4d4d4f"/><polygon points="7.45 53.59 41.12 87.25 40.44 87.25 7.45 54.27 7.45 53.59" fill="#4d4d4f"/><polygon points="7.45 52.91 41.79 87.25 41.12 87.25 7.45 53.59 7.45 52.91" fill="#4d4d4f"/><polygon points="7.45 52.24 42.47 87.25 41.79 87.25 7.45 52.91 7.45 52.24" fill="#4d4d4f"/><polygon points="7.45 51.56 43.15 87.25 42.47 87.25 7.45 52.24 7.45 51.56" fill="#4d4d4f"/><polygon points="7.45 50.88 43.82 87.25 43.15 87.25 7.45 51.56 7.45 50.88" fill="#4d4d4f"/><polygon points="7.45 50.21 44.5 87.25 43.82 87.25 7.45 50.88 7.45 50.21" fill="#4d4d4f"/><polygon points="7.45 49.53 45.17 87.25 44.5 87.25 7.45 50.21 7.45 49.53" fill="#4d4d4f"/><polygon points="7.45 48.86 45.85 87.25 45.17 87.25 7.45 49.53 7.45 48.86" fill="#4d4d4f"/><polygon points="7.45 48.18 46.53 87.25 45.85 87.25 7.45 48.86 7.45 48.18" fill="#4d4d4f"/><polygon points="7.45 47.5 47.2 87.25 46.53 87.25 7.45 48.18 7.45 47.5" fill="#4d4d4f"/><polygon points="7.45 46.83 47.88 87.25 47.2 87.25 7.45 47.5 7.45 46.83" fill="#4d4d4f"/><polygon points="7.45 46.15 48.55 87.25 47.88 87.25 7.45 46.83 7.45 46.15" fill="#4d4d4f"/><polygon points="7.45 45.47 49.23 87.25 48.55 87.25 7.45 46.15 7.45 45.47" fill="#4d4d4f"/><polygon points="7.45 44.8 49.91 87.25 49.23 87.25 7.45 45.47 7.45 44.8" fill="#4d4d4f"/><polygon points="7.45 44.12 50.58 87.25 49.91 87.25 7.45 44.8 7.45 44.12" fill="#4d4d4f"/><polygon points="7.45 43.45 51.26 87.25 50.58 87.25 7.45 44.12 7.45 43.45" fill="#4d4d4f"/><polygon points="7.45 42.77 51.94 87.25 51.26 87.25 7.45 43.45 7.45 42.77" fill="#4d4d4f"/><polygon points="7.45 42.59 7.7 42.34 52.61 87.25 51.94 87.25 7.45 42.77 7.45 42.59" fill="#4d4d4f"/><polygon points="7.7 42.34 8.04 42.01 53.29 87.25 52.61 87.25 7.7 42.34" fill="#4d4d4f"/><polygon points="8.04 42.01 8.38 41.67 53.97 87.25 53.29 87.25 8.04 42.01" fill="#4d4d4f"/><polygon points="8.38 41.67 8.72 41.33 54.64 87.25 53.97 87.25 8.38 41.67" fill="#4d4d4f"/><polygon points="8.72 41.33 9.06 40.99 55.32 87.25 54.64 87.25 8.72 41.33" fill="#4d4d4f"/><polygon points="9.06 40.99 9.39 40.65 55.99 87.25 55.32 87.25 9.06 40.99" fill="#4d4d4f"/><polygon points="9.39 40.65 9.73 40.31 56.67 87.25 55.99 87.25 9.39 40.65" fill="#4d4d4f"/><polygon points="9.73 40.31 10.07 39.98 57.35 87.25 56.67 87.25 9.73 40.31" fill="#4d4d4f"/><polygon points="10.07 39.98 10.41 39.64 58.02 87.25 57.35 87.25 10.07 39.98" fill="#4d4d4f"/><polygon points="10.41 39.64 10.75 39.3 58.7 87.25 58.02 87.25 10.41 39.64" fill="#4d4d4f"/><polygon points="10.75 39.3 11.09 38.96 59.38 87.25 58.7 87.25 10.75 39.3" fill="#4d4d4f"/><polygon points="11.09 38.96 11.42 38.62 60.05 87.25 59.38 87.25 11.09 38.96" fill="#4d4d4f"/><polygon points="11.42 38.62 11.76 38.29 60.73 87.25 60.05 87.25 11.42 38.62" fill="#4d4d4f"/><polygon points="11.76 38.29 12.1 37.95 61.41 87.25 60.73 87.25 11.76 38.29" fill="#4d4d4f"/><polygon points="12.1 37.95 12.44 37.61 62.08 87.25 61.41 87.25 12.1 37.95" fill="#4d4d4f"/><polygon points="12.44 37.61 12.78 37.27 62.76 87.25 62.08 87.25 12.44 37.61" fill="#4d4d4f"/><polygon points="12.78 37.27 13.11 36.93 63.43 87.25 62.76 87.25 12.78 37.27" fill="#4d4d4f"/><polygon points="13.11 36.93 13.45 36.59 64.11 87.25 63.43 87.25 13.11 36.93" fill="#4d4d4f"/><polygon points="13.45 36.59 13.79 36.26 64.79 87.25 64.11 87.25 13.45 36.59" fill="#4d4d4f"/><polygon points="13.79 36.26 14.13 35.92 65.46 87.25 64.79 87.25 13.79 36.26" fill="#4d4d4f"/><polygon points="14.13 35.92 14.47 35.58 66.14 87.25 65.46 87.25 14.13 35.92" fill="#4d4d4f"/><polygon points="14.47 35.58 14.8 35.24 66.82 87.25 66.14 87.25 14.47 35.58" fill="#4d4d4f"/><polygon points="14.8 35.24 15.14 34.9 67.49 87.25 66.82 87.25 14.8 35.24" fill="#4d4d4f"/><polygon points="15.14 34.9 15.48 34.57 68.17 87.25 67.49 87.25 15.14 34.9" fill="#4d4d4f"/><polygon points="15.48 34.57 15.82 34.23 68.84 87.25 68.17 87.25 15.48 34.57" fill="#4d4d4f"/><polygon points="15.82 34.23 16.16 33.89 69.52 87.25 68.84 87.25 15.82 34.23" fill="#4d4d4f"/><polygon points="16.16 33.89 16.5 33.55 70.2 87.25 69.52 87.25 16.16 33.89" fill="#4d4d4f"/><polygon points="16.5 33.55 16.83 33.21 70.87 87.25 70.2 87.25 16.5 33.55" fill="#4d4d4f"/><polygon points="16.83 33.21 17.17 32.88 71.55 87.25 70.87 87.25 16.83 33.21" fill="#4d4d4f"/><polygon points="17.17 32.88 17.51 32.54 72.23 87.25 71.55 87.25 17.17 32.88" fill="#4d4d4f"/><polygon points="17.51 32.54 17.85 32.2 72.9 87.25 72.23 87.25 17.51 32.54" fill="#4d4d4f"/><polygon points="17.85 32.2 18.19 31.86 73.58 87.25 72.9 87.25 17.85 32.2" fill="#4d4d4f"/><polygon points="18.19 31.86 18.52 31.52 74.25 87.25 73.58 87.25 18.19 31.86" fill="#4d4d4f"/><polygon points="18.52 31.52 18.86 31.18 74.93 87.25 74.25 87.25 18.52 31.52" fill="#4d4d4f"/><polygon points="18.86 31.18 19.2 30.85 75.61 87.25 74.93 87.25 18.86 31.18" fill="#4d4d4f"/><polygon points="19.2 30.85 19.5 30.55 19.58 30.55 76.28 87.25 75.61 87.25 19.2 30.85" fill="#4d4d4f"/><polygon points="20.25 30.55 76.96 87.25 76.28 87.25 19.58 30.55 20.25 30.55" fill="#4d4d4f"/><polygon points="20.93 30.55 77.64 87.25 76.96 87.25 20.25 30.55 20.93 30.55" fill="#4d4d4f"/><polygon points="21.61 30.55 78.31 87.25 77.64 87.25 20.93 30.55 21.61 30.55" fill="#4d4d4f"/><polygon points="22.28 30.55 78.99 87.25 78.31 87.25 21.61 30.55 22.28 30.55" fill="#4d4d4f"/><polygon points="22.96 30.55 79.67 87.25 78.99 87.25 22.28 30.55 22.96 30.55" fill="#4d4d4f"/><polygon points="23.64 30.55 80.34 87.25 79.67 87.25 22.96 30.55 23.64 30.55" fill="#4d4d4f"/><polygon points="24.31 30.55 81.02 87.25 80.34 87.25 23.64 30.55 24.31 30.55" fill="#4d4d4f"/><polygon points="24.99 30.55 81.69 87.25 81.02 87.25 24.31 30.55 24.99 30.55" fill="#4d4d4f"/><polygon points="25.66 30.55 82.37 87.25 81.69 87.25 24.99 30.55 25.66 30.55" fill="#4d4d4f"/><polygon points="26.34 30.55 83.05 87.25 82.37 87.25 25.66 30.55 26.34 30.55" fill="#4d4d4f"/><polygon points="27.02 30.55 83.72 87.25 83.05 87.25 26.34 30.55 27.02 30.55" fill="#4d4d4f"/><polygon points="27.69 30.55 84.4 87.25 83.72 87.25 27.02 30.55 27.69 30.55" fill="#4d4d4f"/><polygon points="28.37 30.55 85.08 87.25 84.4 87.25 27.69 30.55 28.37 30.55" fill="#4d4d4f"/><polygon points="29.05 30.55 85.75 87.25 85.08 87.25 28.37 30.55 29.05 30.55" fill="#4d4d4f"/><polygon points="29.72 30.55 86.43 87.25 85.75 87.25 29.05 30.55 29.72 30.55" fill="#4d4d4f"/><polygon points="30.4 30.55 87.11 87.25 86.43 87.25 29.72 30.55 30.4 30.55" fill="#4d4d4f"/><polygon points="31.07 30.55 87.78 87.25 87.11 87.25 30.4 30.55 31.07 30.55" fill="#4d4d4f"/><polygon points="31.75 30.55 88.46 87.25 87.78 87.25 31.07 30.55 31.75 30.55" fill="#4d4d4f"/><polygon points="32.43 30.55 88.99 87.11 88.99 87.25 88.46 87.25 31.75 30.55 32.43 30.55" fill="#4d4d4f"/><polygon points="33.1 30.55 88.99 86.43 88.99 87.11 32.43 30.55 33.1 30.55" fill="#4d4d4f"/><polygon points="33.78 30.55 88.99 85.75 88.99 86.43 33.1 30.55 33.78 30.55" fill="#4d4d4f"/><polygon points="34.46 30.55 88.99 85.08 88.99 85.75 33.78 30.55 34.46 30.55" fill="#4d4d4f"/><polygon points="35.13 30.55 88.99 84.4 88.99 85.08 34.46 30.55 35.13 30.55" fill="#4d4d4f"/><polygon points="35.81 30.55 88.99 83.72 88.99 84.4 35.13 30.55 35.81 30.55" fill="#4d4d4f"/><polygon points="36.48 30.55 88.99 83.05 88.99 83.72 35.81 30.55 36.48 30.55" fill="#4d4d4f"/><polygon points="37.16 30.55 88.99 82.37 88.99 83.05 36.48 30.55 37.16 30.55" fill="#4d4d4f"/><polygon points="37.84 30.55 88.99 81.69 88.99 82.37 37.16 30.55 37.84 30.55" fill="#4d4d4f"/><polygon points="38.51 30.55 88.99 81.02 88.99 81.69 37.84 30.55 38.51 30.55" fill="#4d4d4f"/><polygon points="39.19 30.55 88.99 80.34 88.99 81.02 38.51 30.55 39.19 30.55" fill="#4d4d4f"/><polygon points="39.87 30.55 88.99 79.67 88.99 80.34 39.19 30.55 39.87 30.55" fill="#4d4d4f"/><polygon points="40.54 30.55 88.99 78.99 88.99 79.67 39.87 30.55 40.54 30.55" fill="#4d4d4f"/><polygon points="41.22 30.55 88.99 78.31 88.99 78.99 40.54 30.55 41.22 30.55" fill="#4d4d4f"/><polygon points="41.9 30.55 88.99 77.64 88.99 78.31 41.22 30.55 41.9 30.55" fill="#4d4d4f"/><polygon points="42.57 30.55 88.99 76.96 88.99 77.64 41.9 30.55 42.57 30.55" fill="#4d4d4f"/><polygon points="43.25 30.55 88.99 76.28 88.99 76.96 42.57 30.55 43.25 30.55" fill="#4d4d4f"/><polygon points="43.92 30.55 88.99 75.61 88.99 76.28 43.25 30.55 43.92 30.55" fill="#4d4d4f"/><polygon points="44.6 30.55 88.99 74.93 88.99 75.61 43.92 30.55 44.6 30.55" fill="#4d4d4f"/><polygon points="45.28 30.55 88.99 74.26 88.99 74.93 44.6 30.55 45.28 30.55" fill="#4d4d4f"/><polygon points="45.95 30.55 88.99 73.58 88.99 74.26 45.28 30.55 45.95 30.55" fill="#4d4d4f"/><polygon points="46.63 30.55 88.99 72.9 88.99 73.58 45.95 30.55 46.63 30.55" fill="#4d4d4f"/><polygon points="47.31 30.55 88.99 72.23 88.99 72.9 46.63 30.55 47.31 30.55" fill="#4d4d4f"/><polygon points="47.98 30.55 88.99 71.55 88.99 72.23 47.31 30.55 47.98 30.55" fill="#4d4d4f"/><polygon points="48.66 30.55 88.99 70.87 88.99 71.55 47.98 30.55 48.66 30.55" fill="#4d4d4f"/><polygon points="49.34 30.55 88.99 70.2 88.99 70.87 48.66 30.55 49.34 30.55" fill="#4d4d4f"/><polygon points="50.01 30.55 88.99 69.52 88.99 70.2 49.34 30.55 50.01 30.55" fill="#4d4d4f"/><polygon points="50.69 30.55 88.99 68.84 88.99 69.52 50.01 30.55 50.69 30.55" fill="#4d4d4f"/><polygon points="51.36 30.55 88.99 68.17 88.99 68.84 50.69 30.55 51.36 30.55" fill="#4d4d4f"/><polygon points="52.04 30.55 88.99 67.49 88.99 68.17 51.36 30.55 52.04 30.55" fill="#4d4d4f"/><polygon points="52.72 30.55 88.99 66.82 88.99 67.49 52.04 30.55 52.72 30.55" fill="#4d4d4f"/><polygon points="53.39 30.55 88.99 66.14 88.99 66.82 52.72 30.55 53.39 30.55" fill="#4d4d4f"/><polygon points="54.07 30.55 88.99 65.46 88.99 66.14 53.39 30.55 54.07 30.55" fill="#4d4d4f"/><polygon points="54.75 30.55 88.99 64.79 88.99 65.46 54.07 30.55 54.75 30.55" fill="#4d4d4f"/><polygon points="55.42 30.55 88.99 64.11 88.99 64.79 54.75 30.55 55.42 30.55" fill="#4d4d4f"/><polygon points="56.1 30.55 88.99 63.44 88.99 64.11 55.42 30.55 56.1 30.55" fill="#4d4d4f"/><polygon points="56.77 30.55 88.99 62.76 88.99 63.44 56.1 30.55 56.77 30.55" fill="#4d4d4f"/><polygon points="57.45 30.55 88.99 62.08 88.99 62.76 56.77 30.55 57.45 30.55" fill="#4d4d4f"/><polygon points="58.13 30.55 88.99 61.41 88.99 62.08 57.45 30.55 58.13 30.55" fill="#4d4d4f"/><polygon points="58.8 30.55 88.99 60.73 88.99 61.41 58.13 30.55 58.8 30.55" fill="#4d4d4f"/><polygon points="59.48 30.55 88.99 60.05 88.99 60.73 58.8 30.55 59.48 30.55" fill="#4d4d4f"/><polygon points="60.16 30.55 88.99 59.38 88.99 60.05 59.48 30.55 60.16 30.55" fill="#4d4d4f"/><polygon points="60.83 30.55 88.99 58.7 88.99 59.38 60.16 30.55 60.83 30.55" fill="#4d4d4f"/><polygon points="61.51 30.55 88.99 58.02 88.99 58.7 60.83 30.55 61.51 30.55" fill="#4d4d4f"/><polygon points="62.19 30.55 88.99 57.35 88.99 58.02 61.51 30.55 62.19 30.55" fill="#4d4d4f"/><polygon points="62.86 30.55 88.99 56.67 88.99 57.35 62.19 30.55 62.86 30.55" fill="#4d4d4f"/><polygon points="63.54 30.55 88.99 55.99 88.99 56.67 62.86 30.55 63.54 30.55" fill="#4d4d4f"/><polygon points="64.21 30.55 88.99 55.32 88.99 55.99 63.54 30.55 64.21 30.55" fill="#4d4d4f"/><polygon points="64.89 30.55 88.99 54.64 88.99 55.32 64.21 30.55 64.89 30.55" fill="#4d4d4f"/><polygon points="65.57 30.55 88.99 53.97 88.99 54.64 64.89 30.55 65.57 30.55" fill="#4d4d4f"/><polygon points="66.24 30.55 88.99 53.29 88.99 53.97 65.57 30.55 66.24 30.55" fill="#4d4d4f"/><polygon points="66.92 30.55 88.99 52.61 88.99 53.29 66.24 30.55 66.92 30.55" fill="#4d4d4f"/><polygon points="67.6 30.55 88.99 51.94 88.99 52.61 66.92 30.55 67.6 30.55" fill="#4d4d4f"/><polygon points="68.27 30.55 88.99 51.26 88.99 51.94 67.6 30.55 68.27 30.55" fill="#4d4d4f"/><polygon points="68.95 30.55 88.99 50.59 88.99 51.26 68.27 30.55 68.95 30.55" fill="#4d4d4f"/><polygon points="69.63 30.55 88.99 49.91 88.99 50.59 68.95 30.55 69.63 30.55" fill="#4d4d4f"/><polygon points="70.3 30.55 88.99 49.23 88.99 49.91 69.63 30.55 70.3 30.55" fill="#4d4d4f"/><polygon points="70.98 30.55 88.99 48.56 88.99 49.23 70.3 30.55 70.98 30.55" fill="#4d4d4f"/><polygon points="71.65 30.55 88.99 47.88 88.99 48.56 70.98 30.55 71.65 30.55" fill="#4d4d4f"/><polygon points="72.33 30.55 88.99 47.2 88.99 47.88 71.65 30.55 72.33 30.55" fill="#4d4d4f"/><polygon points="73.01 30.55 88.99 46.53 88.99 47.2 72.33 30.55 73.01 30.55" fill="#4d4d4f"/><polygon points="73.68 30.55 88.99 45.85 88.99 46.53 73.01 30.55 73.68 30.55" fill="#4d4d4f"/><polygon points="74.36 30.55 88.99 45.17 88.99 45.85 73.68 30.55 74.36 30.55" fill="#4d4d4f"/><polygon points="75.03 30.55 88.99 44.5 88.99 45.17 74.36 30.55 75.03 30.55" fill="#4d4d4f"/><polygon points="75.71 30.55 88.99 43.82 88.99 44.5 75.03 30.55 75.71 30.55" fill="#4d4d4f"/><polygon points="76.39 30.55 88.99 43.15 88.99 43.82 75.71 30.55 76.39 30.55" fill="#4d4d4f"/><polygon points="77.06 30.55 88.99 42.47 88.99 43.15 76.39 30.55 77.06 30.55" fill="#4d4d4f"/><polygon points="77.74 30.55 88.99 41.79 88.99 42.47 77.06 30.55 77.74 30.55" fill="#4d4d4f"/><polygon points="78.42 30.55 88.99 41.12 88.99 41.79 77.74 30.55 78.42 30.55" fill="#4d4d4f"/><polygon points="88.99 41.12 78.42 30.55 88.99 30.55 88.99 41.12" fill="#4d4d4f"/></g><path d="M26.59,94.85a1,1,0,0,0-.36.78.89.89,0,0,0,.44.78,8.18,8.18,0,0,0,2,.68,5.63,5.63,0,0,1,2.48,1.18,2.91,2.91,0,0,1,.88,2.28A3,3,0,0,1,30.93,103a4.51,4.51,0,0,1-3,.93,6.87,6.87,0,0,1-4.78-2l1.48-1.82A5.33,5.33,0,0,0,28,101.72a1.8,1.8,0,0,0,1.08-.29,1,1,0,0,0,.39-.8.92.92,0,0,0-.42-.8,5.15,5.15,0,0,0-1.64-.6A7.27,7.27,0,0,1,24.56,98a3.33,3.33,0,0,1,.24-4.79,4.59,4.59,0,0,1,2.86-.87,6.82,6.82,0,0,1,2.24.39,6.16,6.16,0,0,1,2,1.08l-1.27,1.83a4.9,4.9,0,0,0-3-1.11A1.5,1.5,0,0,0,26.59,94.85Z" fill="#58595b"/><path d="M42.73,92.62h2.49V103.8H42.73V99.4H38.28v4.4h-2.5V92.62h2.5v4.67h4.45Z" fill="#58595b"/><path d="M59,102.26a6.08,6.08,0,0,1-8.35,0,5.87,5.87,0,0,1,0-8.24A6.08,6.08,0,0,1,59,94a5.84,5.84,0,0,1,0,8.24Zm-.84-4.11a3.69,3.69,0,0,0-1-2.56,3.18,3.18,0,0,0-4.72,0,3.69,3.69,0,0,0-1,2.56,3.64,3.64,0,0,0,1,2.54,3.18,3.18,0,0,0,4.72,0A3.64,3.64,0,0,0,58.14,98.15Z" fill="#58595b"/><path d="M72.1,93.62a3.82,3.82,0,0,1,1.17,3.07,3.62,3.62,0,0,1-1.21,3,5.85,5.85,0,0,1-3.68,1H66.89v3.12h-2.5V92.62h4A5.75,5.75,0,0,1,72.1,93.62ZM70.26,98a2.15,2.15,0,0,0,.45-1.47,1.56,1.56,0,0,0-.58-1.38,3.24,3.24,0,0,0-1.82-.41H66.89v3.76h1.68A2.24,2.24,0,0,0,70.26,98Z" fill="#58595b"/><path d="M59.51,4.14C55.18-.18,48.43,0,48.29,0a15.77,15.77,0,0,0-4.61.58h0c-16.19,4-18.92,26.53-18.92,26.53h5.42c0-12.4,4.62-19.17,9.25-22.86A18,18,0,0,1,47.85.82a15.88,15.88,0,0,1,5,.34A19.81,19.81,0,0,1,59.51,4.14Z" fill="#4d4d4f"/><path d="M49.93,1.61h-.21a14.43,14.43,0,0,0-5.72.9,11,11,0,0,0-3.57,2.18S48.06,0,55.13,4.19l.17.1.35.22C60.52,7.68,66,14.12,66,27.12h5.2S68.23,3,49.93,1.61Z" fill="#4d4d4f"/><path d="M93.21,58.9C92.66,48.44,83.1,48,83.1,48L84.34,53c3.3,3.93,3.12,11.08-9.14,18.22-8.49,4.94-27.35,9-34.92,1.13,4.11-.26,11.12-1.61,19.12-7a24.37,24.37,0,0,0,9-11,.87.87,0,0,0,.07-.17,15.57,15.57,0,0,0-11-20.71,26.59,26.59,0,0,0-7.06-.66A26.18,26.18,0,0,0,25.49,57.74a25.14,25.14,0,0,0,.15,4.09,30.9,30.9,0,0,1-9.92-5.66L21,53.1,11,51.8l-.1-.1,0,.08L0,50.36,10,69l.9-5.35a45.25,45.25,0,0,0,17.76,7.58c4.43,7.87,13,13.15,22.85,13.76C77.77,86.6,93.72,68.62,93.21,58.9ZM34,58.93A17.51,17.51,0,0,1,49.5,41.54l.44,0,.37,0,.35,0c1.6-.07,5.55,0,7.74,2.15a5.87,5.87,0,0,1,1.45,2.62c1.42,5.15-3.29,18.1-23.65,17.87-.25,0-.76,0-1.47-.13A17.39,17.39,0,0,1,34,58.93Z" fill="url(#linear-gradient)"/><path d="M93.21,58.9C92.65,48.45,83.1,48,83.1,48L84.35,53C87.64,57,87.47,64.11,75.2,71.25a46.32,46.32,0,0,1-24,5.46c-4.41-.32-8.36-1.62-11-4.33,4.1-.26,11.11-1.61,19.11-7a24.63,24.63,0,0,0,8.52-9.86,1.59,1.59,0,0,0,.12-.27,3,3,0,0,0,.13-.29.64.64,0,0,1,.06-.12s0-.05,0-.06v0c.06-.12.11-.25.16-.38s0-.11.08-.17a15.58,15.58,0,0,0-11-20.71,26.55,26.55,0,0,0-7.06-.66A26.16,26.16,0,0,0,25.5,57.74a26.48,26.48,0,0,0,.13,4.1,31.6,31.6,0,0,1-9.91-5.67L21,53.1,11,51.8s-.06-.07-.1-.1l0,.08L0,50.36,10,69l.89-5.35a45.31,45.31,0,0,0,17.77,7.58A26.55,26.55,0,0,0,40.27,82a29.62,29.62,0,0,0,11.27,3C77.77,86.6,93.72,68.62,93.21,58.9ZM49.51,41.54l.43,0,.37,0,.35,0c1.6-.07,5.55,0,7.74,2.15a6,6,0,0,1,1.46,2.62c1.41,5.15-3.3,18.1-23.65,17.87-.26,0-.77,0-1.48-.13a17.73,17.73,0,0,1-.73-5A17.5,17.5,0,0,1,49.51,41.54Z" fill="#00aeef"/><path d="M56.1,76.72l-3,8.32L51.54,85c-9.85-.61-18.43-5.89-22.86-13.76a70.93,70.93,0,0,0,11.61,1.17C43.83,76.06,49.84,77.13,56.1,76.72Z" fill="#00aeef"/><path d="M34,58.93a17.73,17.73,0,0,0,.73,5,45.64,45.64,0,0,1-9.1-2.12,26.48,26.48,0,0,1-.13-4.1,25.71,25.71,0,0,1,3.65-12.15l8,3.32A17.41,17.41,0,0,0,34,58.93Z" fill="#00aeef"/><path d="M47.28,76.1a25,25,0,0,0,4,.61A23.57,23.57,0,0,1,47.28,76.1Z" fill="url(#linear-gradient-2)"/><path d="M67.92,55.53a24.63,24.63,0,0,1-8.52,9.86c-8,5.38-15,6.73-19.11,7a70.93,70.93,0,0,1-11.61-1.17,45.31,45.31,0,0,1-17.77-7.58l.46-3.49a44.67,44.67,0,0,0,33.22,8.79C61.16,66.54,66.61,58.1,67.92,55.53Z" fill="#0093ca"/><path d="M26.75,33.86A1.09,1.09,0,1,1,25.67,35a1.09,1.09,0,0,1,1.08-1.09m0-1.37A2.46,2.46,0,1,0,29.21,35a2.46,2.46,0,0,0-2.46-2.46Z" fill="#4d4d4f"/><path d="M69.68,33.86A1.09,1.09,0,1,1,68.6,35a1.09,1.09,0,0,1,1.08-1.09m0-1.37A2.46,2.46,0,1,0,72.14,35a2.46,2.46,0,0,0-2.46-2.46Z" fill="#4d4d4f"/><path d="M88.9,59.19c-1.26,8-14.29,12.47-15.14,12.84q.76-.39,1.44-.78C87.47,64.11,87.64,57,84.35,53l-.68-2.74C83.84,50.35,89.94,52.6,88.9,59.19Z" fill="#0094cc"/></g></g></svg>