<?xml version="1.0" ?><svg viewBox="0 0 24 24" xmlns="http://www.w3.org/2000/svg" xmlns:xlink="http://www.w3.org/1999/xlink"><defs><linearGradient gradientUnits="userSpaceOnUse" id="a" x1="1.58636" x2="18.85352" y1="1.58636" y2="18.85352"><stop offset="0" stop-color="#fff" stop-opacity="0"/><stop offset="1" stop-color="#fff" stop-opacity="0.1"/></linearGradient></defs><title/><path d="M22.14648,11.43945,12.73242,2.02539A3.4774,3.4774,0,0,0,10.25732,1H3A2.002,2.002,0,0,0,1,3v7.25732a3.4774,3.4774,0,0,0,1.02539,2.4751l9.41406,9.41406a2.914,2.914,0,0,0,4.1211,0l6.58593-6.58593a2.914,2.914,0,0,0,0-4.1211Z"/><path d="M21.43945,14.85352l-6.58593,6.58593a1.98056,1.98056,0,0,1-2.707,0L2.73242,12.02539A2.48422,2.48422,0,0,1,2,10.25732V3A1.0013,1.0013,0,0,1,3,2h7.25732a2.48422,2.48422,0,0,1,1.76807.73242l9.41406,9.41406a1.9144,1.9144,0,0,1,0,2.707Z" fill="#e83628"/><path d="M21.43945,13.02094l-6.58593,6.58593a1.98056,1.98056,0,0,1-2.707,0L2.73242,10.19281A2.48422,2.48422,0,0,1,2,8.42474v1.83258a2.48422,2.48422,0,0,0,.73242,1.76807l9.41406,9.41406a1.98056,1.98056,0,0,0,2.707,0l6.58593-6.58593a1.88452,1.88452,0,0,0,.31586-2.26984A1.89457,1.89457,0,0,1,21.43945,13.02094Z" opacity="0.2"/><circle cx="5" cy="5" r="2"/><circle cx="5" cy="5" fill="#fff" r="1"/><path d="M4.52942,5.48865a1.0013,1.0013,0,0,1,1-1,.98666.98666,0,0,1,.35809.07251.99425.99425,0,1,0-1.2456,1.36633A.97638.97638,0,0,1,4.52942,5.48865Z" opacity="0.2"/><path d="M15.21777,11.13818,15.416,10.168a.49988.49988,0,0,0-.9795-.2002l-.18658.912-1.543.41333.41333-1.543.912-.18658a.49988.49988,0,1,0-.2002-.9795l-.97021.19825L12.12158,8.126a.49981.49981,0,0,0-.66308.748l.696.61719-.41333,1.54291L10.61194,9.90491l.29431-.88294a.49982.49982,0,0,0-.94824-.3164l-.31348.939-.939.31348a.49982.49982,0,1,0,.3164.94824l.88294-.29431,1.12921,1.12921-1.54291.41333-.61719-.696a.49981.49981,0,1,0-.748.66308l.65625.74024L8.584,13.832a.49949.49949,0,0,0,.38965.58984.50573.50573,0,0,0,.10059.01026.50008.50008,0,0,0,.48926-.3999l.18658-.912,1.543-.41333-.41333,1.543-.912.18658a.49988.49988,0,0,0,.2002.9795l.97021-.19825.74024.65625a.49981.49981,0,1,0,.66308-.748l-.696-.61719.41333-1.54291,1.12921,1.12921-.29431.88294a.49982.49982,0,1,0,.94824.3164l.31348-.939.939-.31348a.49982.49982,0,1,0-.3164-.94824l-.88294.29431-1.12921-1.12921,1.54291-.41333.61719.696a.49981.49981,0,1,0,.748-.66308Z" fill="#fff"/><path d="M22.14648,11.43945,12.73242,2.02539A3.4774,3.4774,0,0,0,10.25732,1H3A2.002,2.002,0,0,0,1,3v7.25732a3.4774,3.4774,0,0,0,1.02539,2.4751l9.41406,9.41406a2.914,2.914,0,0,0,4.1211,0l6.58593-6.58593a2.914,2.914,0,0,0,0-4.1211Z" fill="url(#a)"/></svg>